<svg width="1000" height="1000" xmlns="http://www.w3.org/2000/svg" version="1.1">


<!-- internal style sheet -->
<style type="text/css"><![CDATA[
 rect.background{fill:white}
 rect{fill:none; stroke:rgb(25,25,25); stroke-width:2}
 text{font-family:Helvetica; text-anchor:middle; fill:rgb(25,25,25)}
 line{stroke:rgb(25,25,25); stroke-width:4}
 path{fill:none; stroke:rgb(25,25,25); stroke-width:2}
 circle{fill:white; stroke:black; stroke-width:2}

 path.p0{fill:rgb(0,102,255); stroke:rgb(25,25,25); stroke-width:2}
 path.ps0{fill:rgb(0,77,191); stroke:rgb(20,20,20); stroke-width:2}
 rect.r0{fill:rgb(0,102,255); stroke:rgb(25,25,25); stroke-width:2}
 path.p1{fill:rgb(255,0,0); stroke:rgb(25,25,25); stroke-width:2}
 path.ps1{fill:rgb(191,0,0); stroke:rgb(20,20,20); stroke-width:2}
 rect.r1{fill:rgb(255,0,0); stroke:rgb(25,25,25); stroke-width:2}
]]></style>

 <rect class="background" width="1000" height="1000"/>
  <!-- cells -->
  <path class="p1" d="M 80 920 L 588 832 L 677 323 L 168 412 L 80 920"/>
  <line x1="80" y1="920" x2="168" y2="412"/>
  <line x1="80" y1="920" x2="588" y2="832"/>
  <path class="p1" d="M 588 832 L 920 920 L 920 500 L 677 323 L 588 832"/>
  <line x1="920" y1="920" x2="920" y2="500"/>
  <line x1="588" y1="832" x2="920" y2="920"/>
  <path class="p1" d="M 168 412 L 677 323 L 500 80 L 80 80 L 168 412"/>
  <line x1="168" y1="412" x2="80" y2="80"/>
  <line x1="80" y1="80" x2="500" y2="80"/>
  <path class="p1" d="M 677 323 L 920 500 L 832 168 L 500 80 L 677 323"/>
  <line x1="920" y1="500" x2="832" y2="168"/>
  <line x1="500" y1="80" x2="832" y2="168"/>

</svg>