<svg width="1105" height="1000" xmlns="http://www.w3.org/2000/svg" version="1.1">


<!-- internal style sheet -->
<style type="text/css"><![CDATA[
 rect.background{fill:white}
 rect{fill:none; stroke:rgb(25,25,25); stroke-width:2}
 text{font-family:Helvetica; text-anchor:middle; fill:rgb(25,25,25)}
 line{stroke:rgb(25,25,25); stroke-width:4}
 path{fill:none; stroke:rgb(25,25,25); stroke-width:2}
 circle{fill:white; stroke:black; stroke-width:2}

 path.p0{fill:rgb(0,102,255); stroke:rgb(25,25,25); stroke-width:2}
 path.ps0{fill:rgb(0,77,191); stroke:rgb(20,20,20); stroke-width:2}
 rect.r0{fill:rgb(0,102,255); stroke:rgb(25,25,25); stroke-width:2}
 path.p1{fill:rgb(255,0,0); stroke:rgb(25,25,25); stroke-width:2}
 path.ps1{fill:rgb(191,0,0); stroke:rgb(20,20,20); stroke-width:2}
 rect.r1{fill:rgb(255,0,0); stroke:rgb(25,25,25); stroke-width:2}
]]></style>

 <rect class="background" width="1105" height="1000"/>
  <!-- cells -->
  <path class="p1" d="M 88 920 L 597 832 L 773 235 L 177 412 L 88 920"/>
  <line x1="88" y1="920" x2="177" y2="412"/>
  <line x1="88" y1="920" x2="597" y2="832"/>
  <path class="p1" d="M 597 832 L 928 920 L 1017 412 L 773 235 L 597 832"/>
  <line x1="928" y1="920" x2="1017" y2="412"/>
  <line x1="597" y1="832" x2="928" y2="920"/>
  <path class="p1" d="M 177 412 L 773 235 L 508 80 L 88 80 L 177 412"/>
  <line x1="177" y1="412" x2="88" y2="80"/>
  <line x1="88" y1="80" x2="508" y2="80"/>
  <path class="p1" d="M 773 235 L 1017 412 L 840 168 L 508 80 L 773 235"/>
  <line x1="1017" y1="412" x2="840" y2="168"/>
  <line x1="508" y1="80" x2="840" y2="168"/>

</svg>