<svg width="1000" height="1000" xmlns="http://www.w3.org/2000/svg" version="1.1">


<!-- internal style sheet -->
<style type="text/css"><![CDATA[
 rect.background{fill:white}
 rect{fill:none; stroke:rgb(25,25,25); stroke-width:2}
 text{font-family:Helvetica; text-anchor:middle; fill:rgb(25,25,25)}
 line{stroke:rgb(25,25,25); stroke-width:4}
 path{fill:none; stroke:rgb(25,25,25); stroke-width:2}
 circle{fill:white; stroke:black; stroke-width:2}

 path.p0{fill:rgb(0,102,255); stroke:rgb(25,25,25); stroke-width:2}
 path.ps0{fill:rgb(0,77,191); stroke:rgb(20,20,20); stroke-width:2}
 rect.r0{fill:rgb(0,102,255); stroke:rgb(25,25,25); stroke-width:2}
 path.p1{fill:rgb(255,0,0); stroke:rgb(25,25,25); stroke-width:2}
 path.ps1{fill:rgb(191,0,0); stroke:rgb(20,20,20); stroke-width:2}
 rect.r1{fill:rgb(255,0,0); stroke:rgb(25,25,25); stroke-width:2}
]]></style>

 <rect class="background" width="1000" height="1000"/>
  <!-- cells -->
  <path class="p1" d="M 80 920 L 540 840 L 700 300 L 160 460 L 80 920"/>
  <line x1="80" y1="920" x2="160" y2="460"/>
  <line x1="80" y1="920" x2="540" y2="840"/>
  <path class="p1" d="M 540 840 L 840 920 L 920 460 L 700 300 L 540 840"/>
  <line x1="840" y1="920" x2="920" y2="460"/>
  <line x1="540" y1="840" x2="840" y2="920"/>
  <path class="p1" d="M 160 460 L 700 300 L 540 80 L 80 160 L 160 460"/>
  <line x1="160" y1="460" x2="80" y2="160"/>
  <line x1="80" y1="160" x2="540" y2="80"/>
  <path class="p1" d="M 700 300 L 920 460 L 840 160 L 540 80 L 700 300"/>
  <line x1="920" y1="460" x2="840" y2="160"/>
  <line x1="540" y1="80" x2="840" y2="160"/>

</svg>